# xmcd
#
# Track frame offsets:
#	150
#	16918
#	36574
#	55866
#	73310
#	92690
#	109196
#	128631
#	145323
#	161974
#	181758
#	200223
#
# Disc length: 2920 seconds
#
# Revision: 2
# Processed by: cddbd v1.4PL0 Copyright (c) Steve Scherf et al.
# Submitted via: CDmax 1.8
#
DISCID=b30b660c
DTITLE=이승열 - CD
DYEAR=1900
DGENRE=Balad
TTITLE0=유리상자 - 사랑해도 되나요
TTITLE1=이수영 - 그리고 사랑해
TTITLE2=내생에 봄날은...일본원곡
TTITLE3=유리상자 - 날 친구라 부르는 너에게
TTITLE4=리치-사랑해 그말 밖에
TTITLE5=5tion - More than words
TTITLE6=유리상자 - 가지마
TTITLE7=이기찬 - 비바내사랑
TTITLE8=g.o.d - 니가 있어야 할 곳
TTITLE9=처음부터 지금까지
TTITLE10=CAN - 내 생애 봄날은...
TTITLE11=클릭B - 너에게
EXTD=
EXTT0=
EXTT1=
EXTT2=
EXTT3=
EXTT4=
EXTT5=
EXTT6=
EXTT7=
EXTT8=
EXTT9=
EXTT10=
EXTT11=
PLAYORDER=
